<?xml version="1.0" encoding="utf-8"?>
<svg xmlns="http://www.w3.org/2000/svg"
     xmlns:xlink="http://www.w3.org/1999/xlink"
     width="537" height="600" style="background: #000000">
<circle cx="387.0" cy="191.8" r="1.0" stroke="none" fill="#ffffff" name="  2    Lib"/>
<circle cx="310.4" cy="382.7" r="1.0" stroke="none" fill="#ffffff" name="  4    Lib"/>
<circle cx="308.4" cy="242.4" r="1.0" stroke="none" fill="#ffffff" name="  5    Lib"/>
<circle cx="297.7" cy="222.6" r="1.0" stroke="none" fill="#ffffff" name="  7Mu  Lib"/>
<circle cx="292.2" cy="249.7" r="1.0" stroke="none" fill="#ffffff" name="  8Alp1Lib"/>
<circle cx="291.5" cy="250.3" r="2.2" stroke="none" fill="#ffffff" name="  9Alp2Lib"/>
<circle cx="294.8" cy="50.0" r="1.0" stroke="none" fill="#ffffff" name=" 11    Lib"/>
<circle cx="275.2" cy="376.2" r="1.0" stroke="none" fill="#ffffff" name=" 12    Lib"/>
<circle cx="281.1" cy="188.9" r="1.0" stroke="none" fill="#ffffff" name=" 13Xi 1Lib"/>
<circle cx="273.0" cy="181.5" r="1.0" stroke="none" fill="#ffffff" name=" 15Xi 2Lib"/>
<circle cx="272.9" cy="78.7" r="1.0" stroke="none" fill="#ffffff" name=" 16    Lib"/>
<circle cx="268.1" cy="177.6" r="1.0" stroke="none" fill="#ffffff" name=" 17    Lib"/>
<circle cx="265.7" cy="177.4" r="1.0" stroke="none" fill="#ffffff" name=" 18    Lib"/>
<circle cx="259.0" cy="138.8" r="1.0" stroke="none" fill="#ffffff" name=" 19Del Lib"/>
<circle cx="243.7" cy="384.7" r="1.7" stroke="none" fill="#ffffff" name=" 20Sig Lib"/>
<circle cx="238.0" cy="252.1" r="1.0" stroke="none" fill="#ffffff" name=" 21Nu  Lib"/>
<circle cx="218.5" cy="303.9" r="1.0" stroke="none" fill="#ffffff" name=" 24Iot1Lib"/>
<circle cx="214.8" cy="301.7" r="1.0" stroke="none" fill="#ffffff" name=" 25Iot2Lib"/>
<circle cx="213.5" cy="384.7" r="1.0" stroke="none" fill="#ffffff" name=" 23    Lib"/>
<circle cx="210.8" cy="274.0" r="1.0" stroke="none" fill="#ffffff" name=" 26    Lib"/>
<circle cx="202.8" cy="150.7" r="2.4" stroke="none" fill="#ffffff" name=" 27Bet Lib"/>
<circle cx="189.5" cy="279.7" r="1.0" stroke="none" fill="#ffffff" name=" 28    Lib"/>
<circle cx="188.9" cy="241.3" r="1.0" stroke="none" fill="#ffffff" name=" 29Omi Lib"/>
<circle cx="177.7" cy="164.5" r="1.0" stroke="none" fill="#ffffff" name=" 31Eps Lib"/>
<circle cx="164.4" cy="258.7" r="1.0" stroke="none" fill="#ffffff" name=" 32Zet1Lib"/>
<circle cx="156.2" cy="257.2" r="1.0" stroke="none" fill="#ffffff" name=" 34Zet3Lib"/>
<circle cx="148.6" cy="260.9" r="1.0" stroke="none" fill="#ffffff" name=" 35Zet4Lib"/>
<circle cx="147.0" cy="424.8" r="1.0" stroke="none" fill="#ffffff" name=" 36    Lib"/>
<circle cx="142.9" cy="161.2" r="1.0" stroke="none" fill="#ffffff" name=" 37    Lib"/>
<circle cx="139.2" cy="230.7" r="1.1" stroke="none" fill="#ffffff" name=" 38Gam Lib"/>
<circle cx="139.5" cy="426.2" r="1.4" stroke="none" fill="#ffffff" name=" 39Ups Lib"/>
<circle cx="135.4" cy="450.0" r="1.3" stroke="none" fill="#ffffff" name=" 40Tau Lib"/>
<circle cx="129.3" cy="297.4" r="1.0" stroke="none" fill="#ffffff" name=" 41    Lib"/>
<circle cx="126.9" cy="363.8" r="1.0" stroke="none" fill="#ffffff" name=" 42    Lib"/>
<circle cx="119.3" cy="303.2" r="1.0" stroke="none" fill="#ffffff" name=" 43Kap Lib"/>
<circle cx="110.4" cy="244.5" r="1.0" stroke="none" fill="#ffffff" name=" 44Eta Lib"/>
<circle cx="81.9" cy="311.8" r="1.0" stroke="none" fill="#ffffff" name=" 45Lam Lib"/>
<circle cx="78.0" cy="261.3" r="1.0" stroke="none" fill="#ffffff" name=" 46The Lib"/>
<circle cx="75.9" cy="300.5" r="1.0" stroke="none" fill="#ffffff" name=" 47    Lib"/>
<circle cx="61.8" cy="226.0" r="1.0" stroke="none" fill="#ffffff" name=" 48    Lib"/>
<circle cx="56.1" cy="259.5" r="1.0" stroke="none" fill="#ffffff" name=" 49    Lib"/>
<circle cx="50.0" cy="140.4" r="1.0" stroke="none" fill="#ffffff" name=" 50    Lib"/>
</svg>
