<?xml version="1.0" encoding="utf-8"?>
<svg xmlns="http://www.w3.org/2000/svg"
     xmlns:xlink="http://www.w3.org/1999/xlink"
     width="462" height="600" style="background: #000000">
<circle cx="312.0" cy="226.4" r="1.8" stroke="none" fill="#ffffff" name="  1Pi 3Ori"/>
<circle cx="309.1" cy="200.3" r="1.0" stroke="none" fill="#ffffff" name="  2Pi 2Ori"/>
<circle cx="308.3" cy="244.8" r="1.3" stroke="none" fill="#ffffff" name="  3Pi 4Ori"/>
<circle cx="301.0" cy="128.6" r="1.0" stroke="none" fill="#ffffff" name="  4Omi1Ori"/>
<circle cx="302.2" cy="286.7" r="1.0" stroke="none" fill="#ffffff" name="  5    Ori"/>
<circle cx="299.6" cy="287.6" r="1.3" stroke="none" fill="#ffffff" name="  8Pi 5Ori"/>
<circle cx="295.8" cy="166.5" r="1.0" stroke="none" fill="#ffffff" name="  6    Ori"/>
<circle cx="295.9" cy="183.7" r="1.0" stroke="none" fill="#ffffff" name="  7Pi 1Ori"/>
<circle cx="290.2" cy="138.6" r="1.0" stroke="none" fill="#ffffff" name="  9Omi2Ori"/>
<circle cx="286.8" cy="297.6" r="1.0" stroke="none" fill="#ffffff" name=" 10Pi 6Ori"/>
<circle cx="265.4" cy="113.8" r="1.0" stroke="none" fill="#ffffff" name=" 11    Ori"/>
<circle cx="258.2" cy="193.3" r="1.0" stroke="none" fill="#ffffff" name=" 13    Ori"/>
<circle cx="257.7" cy="206.4" r="1.0" stroke="none" fill="#ffffff" name=" 14    Ori"/>
<circle cx="253.1" cy="188.5" r="1.0" stroke="none" fill="#ffffff" name=" 16    Ori"/>
<circle cx="250.3" cy="111.4" r="1.0" stroke="none" fill="#ffffff" name=" 15    Ori"/>
<circle cx="242.0" cy="282.7" r="1.0" stroke="none" fill="#ffffff" name=" 17Rho Ori"/>
<circle cx="237.7" cy="430.6" r="4.9" stroke="none" fill="#ffffff" name=" 19Bet Ori"/>
<circle cx="232.6" cy="168.4" r="1.0" stroke="none" fill="#ffffff" name=" 18    Ori"/>
<circle cx="228.6" cy="412.8" r="1.4" stroke="none" fill="#ffffff" name=" 20Tau Ori"/>
<circle cx="224.1" cy="286.4" r="1.0" stroke="none" fill="#ffffff" name=" 21    Ori"/>
<circle cx="216.3" cy="326.6" r="1.0" stroke="none" fill="#ffffff" name=" 22    Ori"/>
<circle cx="213.0" cy="273.7" r="1.0" stroke="none" fill="#ffffff" name=" 23    Ori"/>
<circle cx="209.4" cy="425.6" r="1.0" stroke="none" fill="#ffffff" name=" 29    Ori"/>
<circle cx="208.0" cy="333.5" r="1.0" stroke="none" fill="#ffffff" name=" 27    Ori"/>
<circle cx="208.0" cy="353.7" r="1.6" stroke="none" fill="#ffffff" name=" 28Eta Ori"/>
<circle cx="207.2" cy="296.6" r="1.0" stroke="none" fill="#ffffff" name=" 25Psi1Ori"/>
<circle cx="205.9" cy="235.8" r="3.4" stroke="none" fill="#ffffff" name=" 24Gam Ori"/>
<circle cx="200.8" cy="279.8" r="1.0" stroke="none" fill="#ffffff" name=" 30Psi2Ori"/>
<circle cx="192.0" cy="336.2" r="1.0" stroke="none" fill="#ffffff" name=" 31    Ori"/>
<circle cx="188.7" cy="241.3" r="1.0" stroke="none" fill="#ffffff" name=" 32    Ori"/>
<circle cx="187.4" cy="277.1" r="1.0" stroke="none" fill="#ffffff" name=" 33    Ori"/>
<circle cx="185.0" cy="325.4" r="1.0" stroke="none" fill="#ffffff" name=" 34Del Ori"/>
<circle cx="185.0" cy="325.6" r="2.8" stroke="none" fill="#ffffff" name=" 34Del Ori"/>
<circle cx="185.2" cy="419.0" r="1.0" stroke="none" fill="#ffffff" name=" 36Ups Ori"/>
<circle cx="179.2" cy="129.0" r="1.0" stroke="none" fill="#ffffff" name=" 35    Ori"/>
<circle cx="178.1" cy="270.7" r="1.0" stroke="none" fill="#ffffff" name=" 38    Ori"/>
<circle cx="176.5" cy="193.5" r="1.0" stroke="none" fill="#ffffff" name=" 37Phi1Ori"/>
<circle cx="175.5" cy="187.5" r="1.5" stroke="none" fill="#ffffff" name=" 39Lam Ori"/>
<circle cx="175.5" cy="187.5" r="1.0" stroke="none" fill="#ffffff" name=" 39Lam Ori"/>
<circle cx="174.7" cy="386.3" r="1.0" stroke="none" fill="#ffffff" name=" 42    Ori"/>
<circle cx="175.1" cy="393.6" r="1.0" stroke="none" fill="#ffffff" name=" 41The1Ori"/>
<circle cx="175.1" cy="393.6" r="1.0" stroke="none" fill="#ffffff" name=" 41The1Ori"/>
<circle cx="175.1" cy="393.7" r="1.0" stroke="none" fill="#ffffff" name=" 41The1Ori"/>
<circle cx="175.0" cy="393.6" r="1.0" stroke="none" fill="#ffffff" name=" 41The1Ori"/>
<circle cx="174.8" cy="394.0" r="1.0" stroke="none" fill="#ffffff" name=" 43The2Ori"/>
<circle cx="174.6" cy="400.6" r="2.2" stroke="none" fill="#ffffff" name=" 44Iot Ori"/>
<circle cx="173.9" cy="386.6" r="1.0" stroke="none" fill="#ffffff" name=" 45    Ori"/>
<circle cx="172.2" cy="337.7" r="3.3" stroke="none" fill="#ffffff" name=" 46Eps Ori"/>
<circle cx="170.2" cy="196.2" r="1.0" stroke="none" fill="#ffffff" name=" 40Phi2Ori"/>
<circle cx="164.5" cy="356.4" r="1.2" stroke="none" fill="#ffffff" name=" 48Sig Ori"/>
<circle cx="163.2" cy="265.9" r="1.0" stroke="none" fill="#ffffff" name=" 47Ome Ori"/>
<circle cx="164.2" cy="417.8" r="1.0" stroke="none" fill="#ffffff" name=" 49    Ori"/>
<circle cx="158.3" cy="347.6" r="3.0" stroke="none" fill="#ffffff" name=" 50Zet Ori"/>
<circle cx="158.3" cy="347.6" r="1.0" stroke="none" fill="#ffffff" name=" 50Zet Ori"/>
<circle cx="153.1" cy="301.6" r="1.0" stroke="none" fill="#ffffff" name=" 51    Ori"/>
<circle cx="136.5" cy="234.3" r="1.0" stroke="none" fill="#ffffff" name=" 52    Ori"/>
<circle cx="137.6" cy="450.0" r="2.9" stroke="none" fill="#ffffff" name=" 53Kap Ori"/>
<circle cx="126.4" cy="421.7" r="1.0" stroke="none" fill="#ffffff" name=" 55    Ori"/>
<circle cx="122.7" cy="296.3" r="1.0" stroke="none" fill="#ffffff" name=" 56    Ori"/>
<circle cx="120.6" cy="50.0" r="1.0" stroke="none" fill="#ffffff" name=" 54Chi1Ori"/>
<circle cx="118.8" cy="56.8" r="1.0" stroke="none" fill="#ffffff" name=" 57    Ori"/>
<circle cx="114.9" cy="221.3" r="4.5" stroke="none" fill="#ffffff" name=" 58Alp Ori"/>
<circle cx="104.6" cy="296.4" r="1.0" stroke="none" fill="#ffffff" name=" 59    Ori"/>
<circle cx="103.3" cy="313.7" r="1.0" stroke="none" fill="#ffffff" name=" 60    Ori"/>
<circle cx="93.7" cy="190.9" r="1.0" stroke="none" fill="#ffffff" name=" 61Mu  Ori"/>
<circle cx="94.4" cy="57.4" r="1.0" stroke="none" fill="#ffffff" name=" 64    Ori"/>
<circle cx="93.3" cy="51.5" r="1.0" stroke="none" fill="#ffffff" name=" 62Chi2Ori"/>
<circle cx="85.1" cy="247.8" r="1.0" stroke="none" fill="#ffffff" name=" 63    Ori"/>
<circle cx="84.9" cy="264.9" r="1.0" stroke="none" fill="#ffffff" name=" 66    Ori"/>
<circle cx="80.1" cy="122.1" r="1.0" stroke="none" fill="#ffffff" name=" 67Nu  Ori"/>
<circle cx="70.1" cy="55.7" r="1.0" stroke="none" fill="#ffffff" name=" 68    Ori"/>
<circle cx="67.8" cy="103.9" r="1.0" stroke="none" fill="#ffffff" name=" 69    Ori"/>
<circle cx="67.1" cy="129.4" r="1.0" stroke="none" fill="#ffffff" name=" 70Xi  Ori"/>
<circle cx="61.7" cy="63.9" r="1.0" stroke="none" fill="#ffffff" name=" 71    Ori"/>
<circle cx="58.1" cy="103.5" r="1.0" stroke="none" fill="#ffffff" name=" 72    Ori"/>
<circle cx="55.1" cy="151.3" r="1.0" stroke="none" fill="#ffffff" name=" 73    Ori"/>
<circle cx="53.0" cy="155.0" r="1.0" stroke="none" fill="#ffffff" name=" 74    Ori"/>
<circle cx="50.0" cy="186.3" r="1.0" stroke="none" fill="#ffffff" name=" 75    Ori"/>
</svg>
