<?xml version="1.0" encoding="utf-8"?>
<svg xmlns="http://www.w3.org/2000/svg"
     xmlns:xlink="http://www.w3.org/1999/xlink"
     width="737" height="600" style="background: #000000">
<circle cx="587.0" cy="325.9" r="1.4" stroke="none" fill="#ffffff" name="  1Omi Tau"/>
<circle cx="578.1" cy="316.7" r="1.3" stroke="none" fill="#ffffff" name="  2Xi  Tau"/>
<circle cx="565.3" cy="294.9" r="1.0" stroke="none" fill="#ffffff" name="  4    Tau"/>
<circle cx="562.2" cy="272.2" r="1.0" stroke="none" fill="#ffffff" name="  5    Tau"/>
<circle cx="558.8" cy="323.4" r="1.0" stroke="none" fill="#ffffff" name="  6    Tau"/>
<circle cx="535.2" cy="108.2" r="1.0" stroke="none" fill="#ffffff" name="  7    Tau"/>
<circle cx="546.2" cy="450.0" r="1.0" stroke="none" fill="#ffffff" name=" 10    Tau"/>
<circle cx="535.0" cy="414.2" r="1.0" stroke="none" fill="#ffffff" name=" 12    Tau"/>
<circle cx="512.7" cy="97.5" r="1.0" stroke="none" fill="#ffffff" name=" 11    Tau"/>
<circle cx="514.9" cy="178.3" r="1.0" stroke="none" fill="#ffffff" name=" 13    Tau"/>
<circle cx="509.8" cy="179.1" r="1.0" stroke="none" fill="#ffffff" name=" 14    Tau"/>
<circle cx="500.7" cy="113.2" r="1.0" stroke="none" fill="#ffffff" name=" 16    Tau"/>
<circle cx="500.7" cy="115.7" r="1.3" stroke="none" fill="#ffffff" name=" 17    Tau"/>
<circle cx="498.8" cy="105.5" r="1.0" stroke="none" fill="#ffffff" name=" 18    Tau"/>
<circle cx="499.1" cy="110.8" r="1.0" stroke="none" fill="#ffffff" name=" 19    Tau"/>
<circle cx="497.1" cy="112.3" r="1.1" stroke="none" fill="#ffffff" name=" 20    Tau"/>
<circle cx="496.6" cy="109.7" r="1.0" stroke="none" fill="#ffffff" name=" 21    Tau"/>
<circle cx="496.2" cy="110.1" r="1.0" stroke="none" fill="#ffffff" name=" 22    Tau"/>
<circle cx="512.8" cy="373.8" r="1.0" stroke="none" fill="#ffffff" name=" 29    Tau"/>
<circle cx="496.0" cy="118.4" r="1.0" stroke="none" fill="#ffffff" name=" 23    Tau"/>
<circle cx="491.9" cy="116.4" r="2.1" stroke="none" fill="#ffffff" name=" 25Eta Tau"/>
<circle cx="500.9" cy="302.2" r="1.0" stroke="none" fill="#ffffff" name=" 30    Tau"/>
<circle cx="486.2" cy="117.5" r="1.4" stroke="none" fill="#ffffff" name=" 27    Tau"/>
<circle cx="486.1" cy="116.3" r="1.0" stroke="none" fill="#ffffff" name=" 28    Tau"/>
<circle cx="489.3" cy="368.4" r="1.0" stroke="none" fill="#ffffff" name=" 31    Tau"/>
<circle cx="461.5" cy="141.4" r="1.0" stroke="none" fill="#ffffff" name=" 32    Tau"/>
<circle cx="460.2" cy="131.5" r="1.0" stroke="none" fill="#ffffff" name=" 33    Tau"/>
<circle cx="454.9" cy="285.3" r="1.5" stroke="none" fill="#ffffff" name=" 35Lam Tau"/>
<circle cx="447.9" cy="378.0" r="1.1" stroke="none" fill="#ffffff" name=" 38Nu  Tau"/>
<circle cx="434.3" cy="119.2" r="1.0" stroke="none" fill="#ffffff" name=" 36    Tau"/>
<circle cx="445.9" cy="385.8" r="1.0" stroke="none" fill="#ffffff" name=" 40    Tau"/>
<circle cx="434.7" cy="148.2" r="1.0" stroke="none" fill="#ffffff" name=" 37    Tau"/>
<circle cx="432.5" cy="149.4" r="1.0" stroke="none" fill="#ffffff" name=" 39    Tau"/>
<circle cx="423.9" cy="69.8" r="1.0" stroke="none" fill="#ffffff" name=" 41    Tau"/>
<circle cx="421.4" cy="50.0" r="1.0" stroke="none" fill="#ffffff" name=" 42Psi Tau"/>
<circle cx="420.6" cy="184.3" r="1.0" stroke="none" fill="#ffffff" name=" 43Ome1Tau"/>
<circle cx="410.6" cy="86.1" r="1.0" stroke="none" fill="#ffffff" name=" 44    Tau"/>
<circle cx="417.4" cy="385.6" r="1.0" stroke="none" fill="#ffffff" name=" 45    Tau"/>
<circle cx="408.8" cy="354.9" r="1.0" stroke="none" fill="#ffffff" name=" 46    Tau"/>
<circle cx="407.0" cy="333.0" r="1.0" stroke="none" fill="#ffffff" name=" 47    Tau"/>
<circle cx="398.6" cy="245.4" r="1.0" stroke="none" fill="#ffffff" name=" 48    Tau"/>
<circle cx="401.1" cy="338.4" r="1.0" stroke="none" fill="#ffffff" name=" 49Mu  Tau"/>
<circle cx="391.5" cy="171.1" r="1.0" stroke="none" fill="#ffffff" name=" 50Ome2Tau"/>
<circle cx="387.1" cy="156.8" r="1.0" stroke="none" fill="#ffffff" name=" 51    Tau"/>
<circle cx="383.6" cy="163.2" r="1.0" stroke="none" fill="#ffffff" name=" 53    Tau"/>
<circle cx="382.7" cy="154.1" r="1.0" stroke="none" fill="#ffffff" name=" 56    Tau"/>
<circle cx="383.9" cy="242.5" r="1.4" stroke="none" fill="#ffffff" name=" 54Gam Tau"/>
<circle cx="378.1" cy="74.5" r="1.0" stroke="none" fill="#ffffff" name=" 52Phi Tau"/>
<circle cx="383.7" cy="265.3" r="1.0" stroke="none" fill="#ffffff" name=" 57    Tau"/>
<circle cx="381.1" cy="250.2" r="1.0" stroke="none" fill="#ffffff" name=" 58    Tau"/>
<circle cx="376.0" cy="264.9" r="1.0" stroke="none" fill="#ffffff" name=" 60    Tau"/>
<circle cx="371.1" cy="99.1" r="1.0" stroke="none" fill="#ffffff" name=" 59Chi Tau"/>
<circle cx="372.1" cy="215.1" r="1.2" stroke="none" fill="#ffffff" name=" 61Del1Tau"/>
<circle cx="370.5" cy="226.2" r="1.0" stroke="none" fill="#ffffff" name=" 63    Tau"/>
<circle cx="366.7" cy="118.2" r="1.0" stroke="none" fill="#ffffff" name=" 62    Tau"/>
<circle cx="367.9" cy="216.6" r="1.0" stroke="none" fill="#ffffff" name=" 64Del2Tau"/>
<circle cx="370.0" cy="330.9" r="1.0" stroke="none" fill="#ffffff" name=" 66    Tau"/>
<circle cx="362.4" cy="147.0" r="1.0" stroke="none" fill="#ffffff" name=" 65Kap1Tau"/>
<circle cx="362.3" cy="148.3" r="1.0" stroke="none" fill="#ffffff" name=" 67Kap2Tau"/>
<circle cx="362.8" cy="209.7" r="1.0" stroke="none" fill="#ffffff" name=" 68Del3Tau"/>
<circle cx="362.7" cy="238.3" r="1.0" stroke="none" fill="#ffffff" name=" 70    Tau"/>
<circle cx="359.0" cy="139.5" r="1.0" stroke="none" fill="#ffffff" name=" 69Ups Tau"/>
<circle cx="360.1" cy="242.9" r="1.0" stroke="none" fill="#ffffff" name=" 71    Tau"/>
<circle cx="359.2" cy="255.9" r="1.0" stroke="none" fill="#ffffff" name=" 73Pi  Tau"/>
<circle cx="355.6" cy="137.0" r="1.0" stroke="none" fill="#ffffff" name=" 72    Tau"/>
<circle cx="352.4" cy="232.4" r="1.0" stroke="none" fill="#ffffff" name=" 75    Tau"/>
<circle cx="352.7" cy="255.6" r="1.0" stroke="none" fill="#ffffff" name=" 76    Tau"/>
<circle cx="351.4" cy="191.8" r="1.5" stroke="none" fill="#ffffff" name=" 74Eps Tau"/>
<circle cx="351.9" cy="238.1" r="1.2" stroke="none" fill="#ffffff" name=" 77The1Tau"/>
<circle cx="351.6" cy="239.4" r="1.6" stroke="none" fill="#ffffff" name=" 78The2Tau"/>
<circle cx="351.2" cy="279.9" r="1.0" stroke="none" fill="#ffffff" name=" 79    Tau"/>
<circle cx="346.2" cy="242.8" r="1.0" stroke="none" fill="#ffffff" name=" 80    Tau"/>
<circle cx="344.4" cy="242.0" r="1.0" stroke="none" fill="#ffffff" name=" 81    Tau"/>
<circle cx="344.6" cy="270.2" r="1.0" stroke="none" fill="#ffffff" name=" 83    Tau"/>
<circle cx="339.9" cy="239.7" r="1.0" stroke="none" fill="#ffffff" name=" 85    Tau"/>
<circle cx="332.7" cy="254.2" r="1.0" stroke="none" fill="#ffffff" name=" 86Rho Tau"/>
<circle cx="325.2" cy="230.3" r="4.2" stroke="none" fill="#ffffff" name=" 87Alp Tau"/>
<circle cx="326.0" cy="321.2" r="1.0" stroke="none" fill="#ffffff" name=" 88    Tau"/>
<circle cx="317.0" cy="237.1" r="1.0" stroke="none" fill="#ffffff" name=" 89    Tau"/>
<circle cx="316.8" cy="287.6" r="1.0" stroke="none" fill="#ffffff" name=" 90    Tau"/>
<circle cx="313.4" cy="240.4" r="1.0" stroke="none" fill="#ffffff" name=" 91Sig1Tau"/>
<circle cx="312.9" cy="238.7" r="1.0" stroke="none" fill="#ffffff" name=" 92Sig2Tau"/>
<circle cx="309.7" cy="292.0" r="1.0" stroke="none" fill="#ffffff" name=" 93    Tau"/>
<circle cx="303.4" cy="137.5" r="1.0" stroke="none" fill="#ffffff" name=" 94Tau Tau"/>
<circle cx="300.3" cy="121.2" r="1.0" stroke="none" fill="#ffffff" name=" 95    Tau"/>
<circle cx="274.9" cy="238.4" r="1.0" stroke="none" fill="#ffffff" name=" 96    Tau"/>
<circle cx="269.9" cy="196.0" r="1.0" stroke="none" fill="#ffffff" name=" 97    Tau"/>
<circle cx="249.9" cy="122.1" r="1.0" stroke="none" fill="#ffffff" name=" 99    Tau"/>
<circle cx="249.5" cy="106.4" r="1.0" stroke="none" fill="#ffffff" name=" 98    Tau"/>
<circle cx="230.0" cy="155.3" r="1.0" stroke="none" fill="#ffffff" name="102Iot Tau"/>
<circle cx="212.6" cy="197.0" r="1.0" stroke="none" fill="#ffffff" name="104    Tau"/>
<circle cx="212.6" cy="171.4" r="1.0" stroke="none" fill="#ffffff" name="106    Tau"/>
<circle cx="214.9" cy="116.3" r="1.0" stroke="none" fill="#ffffff" name="103    Tau"/>
<circle cx="213.2" cy="153.0" r="1.0" stroke="none" fill="#ffffff" name="105    Tau"/>
<circle cx="187.7" cy="143.4" r="1.0" stroke="none" fill="#ffffff" name="108    Tau"/>
<circle cx="174.3" cy="145.3" r="1.0" stroke="none" fill="#ffffff" name="109    Tau"/>
<circle cx="153.6" cy="221.8" r="1.0" stroke="none" fill="#ffffff" name="110    Tau"/>
<circle cx="151.4" cy="211.8" r="1.0" stroke="none" fill="#ffffff" name="111    Tau"/>
<circle cx="159.9" cy="51.2" r="3.4" stroke="none" fill="#ffffff" name="112Bet Tau"/>
<circle cx="144.8" cy="221.2" r="1.0" stroke="none" fill="#ffffff" name="113    Tau"/>
<circle cx="142.4" cy="202.8" r="1.0" stroke="none" fill="#ffffff" name="115    Tau"/>
<circle cx="145.5" cy="145.7" r="1.0" stroke="none" fill="#ffffff" name="114    Tau"/>
<circle cx="138.1" cy="232.6" r="1.0" stroke="none" fill="#ffffff" name="116    Tau"/>
<circle cx="138.6" cy="213.0" r="1.0" stroke="none" fill="#ffffff" name="117    Tau"/>
<circle cx="144.5" cy="99.5" r="1.0" stroke="none" fill="#ffffff" name="118    Tau"/>
<circle cx="125.5" cy="192.4" r="1.0" stroke="none" fill="#ffffff" name="119    Tau"/>
<circle cx="120.8" cy="192.9" r="1.0" stroke="none" fill="#ffffff" name="120    Tau"/>
<circle cx="122.2" cy="113.7" r="1.0" stroke="none" fill="#ffffff" name="121    Tau"/>
<circle cx="106.7" cy="213.4" r="1.0" stroke="none" fill="#ffffff" name="122    Tau"/>
<circle cx="110.3" cy="154.5" r="2.0" stroke="none" fill="#ffffff" name="123Zet Tau"/>
<circle cx="111.3" cy="86.1" r="1.0" stroke="none" fill="#ffffff" name="125    Tau"/>
<circle cx="91.4" cy="219.4" r="1.0" stroke="none" fill="#ffffff" name="126    Tau"/>
<circle cx="71.5" cy="227.8" r="1.0" stroke="none" fill="#ffffff" name="129    Tau"/>
<circle cx="68.3" cy="246.7" r="1.0" stroke="none" fill="#ffffff" name="131    Tau"/>
<circle cx="71.8" cy="200.2" r="1.0" stroke="none" fill="#ffffff" name="130    Tau"/>
<circle cx="65.8" cy="254.9" r="1.0" stroke="none" fill="#ffffff" name="133    Tau"/>
<circle cx="78.4" cy="102.1" r="1.0" stroke="none" fill="#ffffff" name="132    Tau"/>
<circle cx="58.1" cy="272.1" r="1.0" stroke="none" fill="#ffffff" name="134    Tau"/>
<circle cx="56.7" cy="248.2" r="1.0" stroke="none" fill="#ffffff" name="135    Tau"/>
<circle cx="50.0" cy="249.4" r="1.0" stroke="none" fill="#ffffff" name="137    Tau"/>
<circle cx="71.3" cy="57.7" r="1.0" stroke="none" fill="#ffffff" name="136    Tau"/>
<circle cx="52.6" cy="79.4" r="1.0" stroke="none" fill="#ffffff" name="139    Tau"/>
</svg>
